<?xml version="1.0" encoding="UTF-8"?>
<svg version="1.1" xmlns="http://www.w3.org/2000/svg" width="600" height="600">
<path d="M0 0 C198 0 396 0 600 0 C600 198 600 396 600 600 C402 600 204 600 0 600 C0 402 0 204 0 0 Z " fill="#252424" transform="translate(0,0)"/>
<path d="M0 0 C3.71286649 1.71322199 5.52431786 3.57216654 8.0625 6.8125 C8.84753906 7.79863281 9.63257813 8.78476563 10.44140625 9.80078125 C10.85664551 10.32365723 11.27188477 10.8465332 11.69970703 11.38525391 C13.91377109 14.13475066 16.20933768 16.81429939 18.5 19.5 C22.62198058 24.34876021 26.66993346 29.25163253 30.6875 34.1875 C33.7243277 37.8809391 36.81960955 41.52298486 39.91625977 45.16625977 C42.7954532 48.55954109 45.63204237 51.98267786 48.4375 55.4375 C51.89274304 59.6839257 55.42702204 63.85292359 59 68 C63.3281645 73.02447878 67.58003612 78.09975102 71.75390625 83.25390625 C73.41072412 85.27954619 75.08221557 87.28427337 76.77734375 89.27734375 C77.24124512 89.82503418 77.70514648 90.37272461 78.18310547 90.93701172 C79.49502653 92.48298878 80.81183649 94.02481318 82.12890625 95.56640625 C84 98 84 98 84 100 C87.28784821 96.79248316 90.31026202 93.51650334 93.1875 89.9375 C96.4289578 85.93271383 99.69503711 81.9525917 103 78 C106.16909541 74.20587498 109.31617294 70.39600151 112.4375 66.5625 C116.20883774 61.93978442 120.05089816 57.382167 123.91381836 52.83618164 C127.56269442 48.5351064 131.13637493 44.17662798 134.6953125 39.80078125 C137.22033005 36.73224297 139.79481587 33.70957408 142.375 30.6875 C146.26340566 26.12863254 150.0112586 21.48134634 153.6875 16.75 C163.01552497 4.77476582 163.01552497 4.77476582 167 1 C167.66 1 168.32 1 169 1 C169.81706167 4.0404598 170.6278202 7.08256683 171.4375 10.125 C171.78264648 11.40890625 171.78264648 11.40890625 172.13476562 12.71875 C176.76046463 30.14892015 174.47295253 46.35640497 169.828125 63.6015625 C167.86611273 71.65321662 166.49894625 79.85141215 165 88 C163.68 88.33 162.36 88.66 161 89 C161 96.26 161 103.52 161 111 C163.97 111 166.94 111 170 111 C170.33 101.76 170.66 92.52 171 83 C172.98 83 174.96 83 177 83 C177 74.42 177 65.84 177 57 C178.65 57 180.3 57 182 57 C182 60.63 182 64.26 182 68 C183.32 68.33 184.64 68.66 186 69 C187.65 77.58 189.3 86.16 191 95 C196.13150407 93.68752382 196.13150407 93.68752382 201.26098633 92.3671875 C204.24858939 91.61157242 206.90670398 91 210 91 C210.33 98.26 210.66 105.52 211 113 C207.06469723 114.50599286 203.12698307 116.00501668 199.1875 117.5 C198.06794922 117.92925781 196.94839844 118.35851562 195.79492188 118.80078125 C194.72177734 119.20683594 193.64863281 119.61289062 192.54296875 120.03125 C191.55321045 120.40830078 190.56345215 120.78535156 189.54370117 121.17382812 C187 122 187 122 184 122 C183.96261719 122.6084375 183.92523438 123.216875 183.88671875 123.84375 C183.2474754 132.36699471 181.66944437 140.63177885 180 149 C179.34 149 178.68 149 178 149 C177.01 146.03 176.02 143.06 175 140 C174.58862793 140.69746338 174.17725586 141.39492676 173.75341797 142.11352539 C166.63206614 154.17954749 159.50167558 166.23699861 152.1875 178.1875 C146.60735262 187.30751561 141.13408626 196.48743601 135.6875 205.6875 C125.48368851 222.91679876 115.13473354 240.0545368 104.62890625 257.1015625 C104.2698671 257.68424896 103.91082794 258.26693542 103.54090881 258.86727905 C101.84288375 261.62202492 100.14256213 264.37531199 98.4387207 267.12646484 C94.63892141 273.27604119 90.98470514 279.48070214 87.46728516 285.796875 C86.98308105 286.52390625 86.49887695 287.2509375 86 288 C85.34 288 84.68 288 84 288 C82.40897667 285.52779452 80.940249 283.05876075 79.5 280.5 C78.59430439 278.92471243 77.68670653 277.35051723 76.77734375 275.77734375 C76.08294189 274.57440674 76.08294189 274.57440674 75.37451172 273.34716797 C73.34069655 269.87414861 71.21071911 266.46556413 69.0625 263.0625 C64.14263706 255.2470727 59.31813453 247.37627405 54.515625 239.48828125 C52.91844157 236.86610124 51.31870619 234.24548899 49.71875 231.625 C43.54314772 221.50302011 37.40511419 211.35966484 31.3125 201.1875 C25.26364004 191.0904207 19.16303214 181.02772736 13 171 C12.34225586 169.92878906 11.68451172 168.85757813 11.00683594 167.75390625 C9.18259467 164.78294417 7.35747562 161.81252295 5.53170776 158.84249878 C4.80723634 157.66396734 4.08288968 156.4853592 3.3586731 155.30667114 C2.34257799 153.65329852 1.32560275 152.00046689 0.30859375 150.34765625 C-0.28123291 149.38867432 -0.87105957 148.42969238 -1.47875977 147.44165039 C-2.62124534 145.60791612 -3.80155811 143.79766284 -5 142 C-7.00173029 149.85100094 -9.0016248 157.70246651 -10.99936199 165.55448437 C-11.92767763 169.20296319 -12.85655681 172.85129633 -13.78686523 176.49926758 C-19.12914683 197.44441854 -19.12914683 197.44441854 -24.20762634 218.45477295 C-25.77242389 225.0981387 -27.41403065 231.72069166 -29.078125 238.33984375 C-29.46856743 239.8932975 -29.46856743 239.8932975 -29.86689758 241.47813416 C-30.93345955 245.71694018 -32.00191808 249.95526352 -33.07226562 254.19311523 C-33.86794278 257.34567739 -34.66070763 260.49896091 -35.453125 263.65234375 C-35.69476379 264.6054393 -35.93640259 265.55853485 -36.18536377 266.54051208 C-36.4093988 267.43327347 -36.63343384 268.32603485 -36.86425781 269.24584961 C-37.15807343 270.40992592 -37.15807343 270.40992592 -37.45782471 271.59751892 C-38.08468946 274.37527497 -38.53185564 277.19113387 -39 280 C-52.86 280 -66.72 280 -81 280 C-81 279.34 -81 278.68 -81 278 C-80.154375 277.34 -79.30875 276.68 -78.4375 276 C-61.98177045 262.5502351 -57.55386469 237.46215457 -53 218 C-52.74508789 216.91090332 -52.49017578 215.82180664 -52.22753906 214.69970703 C-51.228969 210.40871254 -50.23956401 206.11575694 -49.26245117 201.81982422 C-46.53168116 189.83243485 -43.51642844 177.91917518 -40.50512695 165.99975586 C-38.81097405 159.29274455 -37.12157562 152.58454878 -35.4375 145.875 C-35.24542969 145.1104248 -35.05335938 144.34584961 -34.85546875 143.55810547 C-32.09396856 132.55175464 -29.47524011 121.52293044 -26.9699707 110.45507812 C-25.24277621 102.8837471 -23.29354244 95.42028436 -21 88 C-18.04816899 90.95183101 -17.91336012 93.95511947 -17 98 C-15.35 97.67 -13.7 97.34 -12 97 C-12 92.05 -12 87.1 -12 82 C-13.98 82 -15.96 82 -18 82 C-18 73.75 -18 65.5 -18 57 C-16.02 57 -14.04 57 -12 57 C-12 52.05 -12 47.1 -12 42 C-11.01 42 -10.02 42 -9 42 C-9 46.95 -9 51.9 -9 57 C-7.02 57 -5.04 57 -3 57 C-3 65.25 -3 73.5 -3 82 C-4.98 82 -6.96 82 -9 82 C-9 85.96 -9 89.92 -9 94 C-7.741875 93.01 -6.48375 92.02 -5.1875 91 C-1.375 88 -1.375 88 2 88 C3.57627023 93.72655621 5.14253521 99.45572099 6.69970703 105.1875 C7.23051181 107.13583528 7.76401342 109.08343797 8.30029297 111.03027344 C9.07193705 113.83338869 9.83375238 116.63902034 10.59375 119.4453125 C10.83436157 120.31116974 11.07497314 121.17702698 11.32287598 122.06912231 C12.51072744 126.49412431 13.28970766 130.37126175 13 135 C14.32 134.67 15.64 134.34 17 134 C21.5899194 140.19582171 26.01353399 146.39741568 30 153 C30.33 149.37 30.66 145.74 31 142 C29.02 142 27.04 142 25 142 C25 129.46 25 116.92 25 104 C25.99 104 26.98 104 28 104 C27.01 96.08 27.01 96.08 26 88 C29.3 88.33 32.6 88.66 36 89 C36 90.32 36 91.64 36 93 C37.32 93 38.64 93 40 93 C40 96.63 40 100.26 40 104 C40.66 104 41.32 104 42 104 C42.185625 105.03125 42.37125 106.0625 42.5625 107.125 C43.42812333 110.76836984 44.89695328 113.78764123 46.69750977 117.06323242 C51.01992273 124.97362123 51.75979121 129.96256247 49.23828125 138.61328125 C48.55061114 140.77021724 47.81147781 142.88709552 47 145 C45.35 145.33 43.7 145.66 42 146 C41.67 145.01 41.34 144.02 41 143 C39.02 143 37.04 143 35 143 C35 147.29 35 151.58 35 156 C35.99 156 36.98 156 38 156 C49.66662498 190.80991237 49.66662498 190.80991237 54.5625 206.125 C54.871875 207.09236084 55.18125 208.05972168 55.5 209.05639648 C57.39613772 215.01922291 59.22082524 221.0012685 61 227 C64.52388228 213.7793658 67.17022842 200.4315233 69.75 187 C70.16496942 184.85669429 70.5803314 182.71346454 70.99609375 180.5703125 C72.0019135 175.38107353 73.00292014 170.19092498 74 165 C75.65 165 77.3 165 79 165 C79 163.35 79 161.7 79 160 C78.34 160 77.68 160 77 160 C77.62759865 157.07120629 78.58622659 154.63904371 80 152 C81.65 152.66 83.3 153.32 85 154 C85 157.63 85 161.26 85 165 C86.32 165 87.64 165 89 165 C90.33838733 167.45570175 91.67086232 169.91429916 93 172.375 C93.57234375 173.42300781 93.57234375 173.42300781 94.15625 174.4921875 C97 179.7734375 97 179.7734375 97 182 C97.66 182 98.32 182 99 182 C99.0825 180.824375 99.165 179.64875 99.25 178.4375 C100.00038171 171.44887034 102.09003144 164.74263319 104 158 C105.32 157.67 106.64 157.34 108 157 C108 154.69 108 152.38 108 150 C106.02 150 104.04 150 102 150 C102 144.72 102 139.44 102 134 C103.98 134 105.96 134 108 134 C108 128.39 108 122.78 108 117 C105.35859027 119.64140973 104.1130632 121.37340257 102.44140625 124.59765625 C101.73854492 125.92313477 101.73854492 125.92313477 101.02148438 127.27539062 C100.04806023 129.13493046 99.07931153 130.99692521 98.11523438 132.86132812 C97.64537109 133.74369141 97.17550781 134.62605469 96.69140625 135.53515625 C96.27060791 136.343479 95.84980957 137.15180176 95.41625977 137.98461914 C93.80789944 140.27336496 92.49295238 140.84482265 90 142 C88.71745356 144.53770003 88.71745356 144.53770003 88 147 C84.80800833 144.58443874 82.25283313 142.31996462 80 139 C77.11562221 140.29299694 75.12780579 141.65941363 73 144 C70 143 70 143 68.70410156 140.74804688 C68.2706543 139.74837891 67.83720703 138.74871094 67.390625 137.71875 C66.89006592 136.58171631 66.38950684 135.44468262 65.8737793 134.27319336 C65.33233385 133.01554216 64.79107914 131.75780883 64.25 130.5 C63.39624682 128.54510793 62.53889572 126.59182093 61.68119812 124.63865662 C61.0769037 123.26219736 60.47383184 121.88520082 59.87190247 120.50770569 C57.57671855 115.26757636 55.20843604 110.06403066 52.80859375 104.87109375 C52.29116104 103.74829514 52.29116104 103.74829514 51.76327515 102.60281372 C49.72261899 98.17494229 49.72261899 98.17494229 47.66931152 93.75292969 C46.71412885 91.70163767 45.76831383 89.64625704 44.82421875 87.58984375 C44.27854248 86.41284912 43.73286621 85.23585449 43.1706543 84.02319336 C42 81 42 81 42 77 C41.32195312 76.98582031 40.64390625 76.97164063 39.9453125 76.95703125 C32.59365038 76.58028402 27.32454115 74.71789729 21 71 C21 71.99 21 72.98 21 74 C19.35 74 17.7 74 16 74 C16 80.93 16 87.86 16 95 C14.68 95 13.36 95 12 95 C12 88.07 12 81.14 12 74 C10.02 74 8.04 74 6 74 C6 72.68 6 71.36 6 70 C7.65 70 9.3 70 11 70 C11 68.68 11 67.36 11 66 C9.68 66.33 8.36 66.66 7 67 C4.30661219 60.14885819 2.07801933 53.16598225 -0.0715332 46.12841797 C-0.4816398 44.7945556 -0.89764823 43.46249329 -1.31958008 42.13232422 C-5.15851165 30.02274232 -6.04593416 21.10368106 -2.5 8.875 C-2.26152344 8.01390625 -2.02304688 7.1528125 -1.77734375 6.265625 C-1.19630373 4.17388091 -0.59979867 2.08644252 0 0 Z " fill="#A71F6E" transform="translate(213,170)"/>
<path d="M0 0 C3.71286649 1.71322199 5.52431786 3.57216654 8.0625 6.8125 C8.84753906 7.79863281 9.63257813 8.78476563 10.44140625 9.80078125 C10.85664551 10.32365723 11.27188477 10.8465332 11.69970703 11.38525391 C13.91377109 14.13475066 16.20933768 16.81429939 18.5 19.5 C22.62198058 24.34876021 26.66993346 29.25163253 30.6875 34.1875 C33.7243277 37.8809391 36.81960955 41.52298486 39.91625977 45.16625977 C42.7954532 48.55954109 45.63204237 51.98267786 48.4375 55.4375 C51.89274304 59.6839257 55.42702204 63.85292359 59 68 C63.3281645 73.02447878 67.58003612 78.09975102 71.75390625 83.25390625 C73.41072412 85.27954619 75.08221557 87.28427337 76.77734375 89.27734375 C77.24124512 89.82503418 77.70514648 90.37272461 78.18310547 90.93701172 C79.49502653 92.48298878 80.81183649 94.02481318 82.12890625 95.56640625 C84 98 84 98 84 100 C87.28784821 96.79248316 90.31026202 93.51650334 93.1875 89.9375 C96.4289578 85.93271383 99.69503711 81.9525917 103 78 C106.16909541 74.20587498 109.31617294 70.39600151 112.4375 66.5625 C116.20883774 61.93978442 120.05089816 57.382167 123.91381836 52.83618164 C127.56269442 48.5351064 131.13637493 44.17662798 134.6953125 39.80078125 C137.22033005 36.73224297 139.79481587 33.70957408 142.375 30.6875 C146.26340566 26.12863254 150.0112586 21.48134634 153.6875 16.75 C163.01552497 4.77476582 163.01552497 4.77476582 167 1 C167.66 1 168.32 1 169 1 C169.81706167 4.0404598 170.6278202 7.08256683 171.4375 10.125 C171.78264648 11.40890625 171.78264648 11.40890625 172.13476562 12.71875 C176.76046463 30.14892015 174.47295253 46.35640497 169.828125 63.6015625 C167.86611273 71.65321662 166.49894625 79.85141215 165 88 C162.525 88.495 162.525 88.495 160 89 C160 92.3 160 95.6 160 99 C159.67 98.34 159.34 97.68 159 97 C156.69 97 154.38 97 152 97 C152 97.66 152 98.32 152 99 C148.7 99.66 145.4 100.32 142 101 C142 102.98 142 104.96 142 107 C142.99 107 143.98 107 145 107 C145 122.84 145 138.68 145 155 C143.02 155 141.04 155 139 155 C139 158.3 139 161.6 139 165 C137.35 165 135.7 165 134 165 C134 161.7 134 158.4 134 155 C132.02 155 130.04 155 128 155 C128.020625 154.03964844 128.04125 153.07929688 128.0625 152.08984375 C127.99723217 140.6622977 125.03070511 131.1398765 121.0078125 120.5078125 C118.96417539 115.09635478 117.4215698 109.60345612 116 104 C113.9586525 106.66964247 112.27632548 109.22139555 110.8125 112.25 C110.29623047 113.30960938 110.29623047 113.30960938 109.76953125 114.390625 C109.51558594 114.92171875 109.26164062 115.4528125 109 116 C108.34 116 107.68 116 107 116 C106.66266846 116.68102783 106.32533691 117.36205566 105.9777832 118.0637207 C104.43698447 121.15401728 102.87506911 124.23315806 101.3125 127.3125 C100.78205078 128.38435547 100.25160156 129.45621094 99.70507812 130.56054688 C99.17978516 131.58857422 98.65449219 132.61660156 98.11328125 133.67578125 C97.63673096 134.62364502 97.16018066 135.57150879 96.66918945 136.5480957 C94.76318411 139.34786339 92.9211584 140.36631401 90 142 C88.65310085 144.57099402 88.65310085 144.57099402 88 147 C84.80800833 144.58443874 82.25283313 142.31996462 80 139 C77.11562221 140.29299694 75.12780579 141.65941363 73 144 C70 143 70 143 68.70410156 140.74804688 C68.2706543 139.74837891 67.83720703 138.74871094 67.390625 137.71875 C66.89006592 136.58171631 66.38950684 135.44468262 65.8737793 134.27319336 C65.33233385 133.01554216 64.79107914 131.75780883 64.25 130.5 C63.39624682 128.54510793 62.53889572 126.59182093 61.68119812 124.63865662 C61.0769037 123.26219736 60.47383184 121.88520082 59.87190247 120.50770569 C57.57671855 115.26757636 55.20843604 110.06403066 52.80859375 104.87109375 C52.46363861 104.12256134 52.11868347 103.37402893 51.76327515 102.60281372 C49.72261899 98.17494229 49.72261899 98.17494229 47.66931152 93.75292969 C46.71412885 91.70163767 45.76831383 89.64625704 44.82421875 87.58984375 C44.27854248 86.41284912 43.73286621 85.23585449 43.1706543 84.02319336 C42 81 42 81 42 77 C41.32195312 76.98582031 40.64390625 76.97164063 39.9453125 76.95703125 C32.59365038 76.58028402 27.32454115 74.71789729 21 71 C21 71.99 21 72.98 21 74 C19.35 74 17.7 74 16 74 C16 80.93 16 87.86 16 95 C14.68 95 13.36 95 12 95 C12 88.07 12 81.14 12 74 C10.02 74 8.04 74 6 74 C6 72.68 6 71.36 6 70 C7.65 70 9.3 70 11 70 C11 68.68 11 67.36 11 66 C9.02 66.495 9.02 66.495 7 67 C4.30661219 60.14885819 2.07801933 53.16598225 -0.0715332 46.12841797 C-0.4816398 44.7945556 -0.89764823 43.46249329 -1.31958008 42.13232422 C-5.15851165 30.02274232 -6.04593416 21.10368106 -2.5 8.875 C-2.26152344 8.01390625 -2.02304688 7.1528125 -1.77734375 6.265625 C-1.19630373 4.17388091 -0.59979867 2.08644252 0 0 Z " fill="#B52162" transform="translate(213,170)"/>
<path d="M0 0 C1.70736328 0.01353516 1.70736328 0.01353516 3.44921875 0.02734375 C6.21637881 0.0505972 8.9830676 0.08327132 11.75 0.125 C9.90637918 9.415201 7.99402852 18.64361376 5.375 27.75 C3.35265626 34.79266171 1.56397454 41.87007097 -0.125 49 C-3.08967824 61.51103795 -6.19398616 73.98407074 -9.328125 86.45361328 C-10.95333667 92.92605321 -12.56984751 99.4006675 -14.1875 105.875 C-14.7799113 108.24480082 -15.37235569 110.61459337 -15.96484375 112.984375 C-16.21355225 113.97920898 -16.46226074 114.97404297 -16.71850586 115.99902344 C-16.89389893 116.7005957 -17.06929199 117.40216797 -17.25 118.125 C-19.35798547 116.01701453 -19.82904627 114.89982651 -20.76220703 112.13427734 C-21.0423465 111.31357758 -21.32248596 110.49287781 -21.6111145 109.64730835 C-21.90702484 108.76080597 -22.20293518 107.87430359 -22.5078125 106.9609375 C-22.81572723 106.05372955 -23.12364197 105.14652161 -23.44088745 104.21182251 C-24.42446762 101.30972246 -25.3998145 98.40493036 -26.375 95.5 C-27.03982477 93.53367157 -27.70518267 91.56752331 -28.37109375 89.6015625 C-30.00359283 84.77811164 -31.62871251 79.95223034 -33.25 75.125 C-33.58 75.125 -33.91 75.125 -34.25 75.125 C-34.40033691 75.95298096 -34.55067383 76.78096191 -34.70556641 77.6340332 C-37.54023044 93.17540552 -40.49772581 108.65912773 -43.98754883 124.06933594 C-45.91716174 132.59438226 -47.77028578 141.13271476 -49.5625 149.6875 C-49.81708984 150.88270264 -50.07167969 152.07790527 -50.33398438 153.30932617 C-51.70653542 159.90514452 -52.76295125 166.40296173 -53.25 173.125 C-55.23 173.125 -57.21 173.125 -59.25 173.125 C-59.25 178.405 -59.25 183.685 -59.25 189.125 C-60.57 189.125 -61.89 189.125 -63.25 189.125 C-63.25 184.175 -63.25 179.225 -63.25 174.125 C-64.57 174.125 -65.89 174.125 -67.25 174.125 C-67.25 177.425 -67.25 180.725 -67.25 184.125 C-71.07989106 185.92730168 -74.03121808 186.32122241 -78.25 186.125 C-78.25 188.105 -78.25 190.085 -78.25 192.125 C-79.9 192.125 -81.55 192.125 -83.25 192.125 C-81.97613309 179.38633095 -78.51987941 166.92170806 -75.46356201 154.51538086 C-72.56199965 142.73099963 -69.70390895 130.94185852 -67.06079102 119.09643555 C-65.39981001 111.68824778 -63.60996118 104.31362268 -61.8125 96.9375 C-59.54647421 87.62445657 -57.36812488 78.29921084 -55.3125 68.9375 C-54.29464817 64.33266931 -53.27291316 59.7287088 -52.25 55.125 C-52.01863342 54.0794696 -52.01863342 54.0794696 -51.78259277 53.01281738 C-50.77109726 48.44611269 -49.74458973 43.88314635 -48.7013855 39.32357788 C-48.36382425 37.83832043 -48.03077399 36.35202915 -47.70266724 34.86465454 C-42.62851902 11.90142999 -42.62851902 11.90142999 -32.25 5.125 C-22.45797235 -0.25101518 -10.90273791 -0.16733836 0 0 Z " fill="#E62735" transform="translate(192.25,150.875)"/>
<path d="M0 0 C-0.65782471 0.26103516 -1.31564941 0.52207031 -1.9934082 0.79101562 C-13.2121886 5.24769785 -24.42908923 9.70823305 -35.5625 14.375 C-36.30346924 14.68373047 -37.04443848 14.99246094 -37.80786133 15.31054688 C-41.28508526 16.77799187 -44.68322009 18.32238993 -48.04296875 20.04296875 C-51.85204738 21.97764983 -55.7327607 23.49546527 -59.75 24.9375 C-65.80119175 27.14838949 -71.74232313 29.5283569 -77.64453125 32.1171875 C-80 33 -80 33 -83 33 C-83 33.66 -83 34.32 -83 35 C-83.83515137 35.28697754 -84.67030273 35.57395508 -85.53076172 35.86962891 C-91.96105536 38.11760325 -98.30320997 40.47690964 -104.5703125 43.1484375 C-105.50360382 43.54497528 -105.50360382 43.54497528 -106.45574951 43.94952393 C-108.99948587 45.03328242 -111.54116824 46.12134423 -114.07714844 47.22314453 C-115.96653268 48.0417513 -117.86148495 48.84607342 -119.7578125 49.6484375 C-120.8627002 50.12458496 -121.96758789 50.60073242 -123.10595703 51.09130859 C-126 52 -126 52 -130 51 C-130.33 57.27 -130.66 63.54 -131 70 C-129.35 70 -127.7 70 -126 70 C-126 75.94 -126 81.88 -126 88 C-127.65 88 -129.3 88 -131 88 C-131 91.3 -131 94.6 -131 98 C-126.545 97.01 -126.545 97.01 -122 96 C-119.16242559 102.52754272 -116.54527066 108.9405039 -114.7734375 115.84375 C-113.94771654 118.47896261 -113.94771654 118.47896261 -111 122 C-108.525 116.06 -108.525 116.06 -106 110 C-103 111 -103 111 -101.6484375 113.546875 C-101.22820312 114.60390625 -100.80796875 115.6609375 -100.375 116.75 C-99.94960938 117.79671875 -99.52421875 118.8434375 -99.0859375 119.921875 C-98.13150529 122.627244 -97.47061857 125.17628861 -97 128 C-96.34 128 -95.68 128 -95 128 C-94.9575415 127.34153076 -94.91508301 126.68306152 -94.87133789 126.00463867 C-94.33203972 118.92019343 -93.09648267 112.21331026 -91.4375 105.3125 C-91.08655273 103.81299805 -91.08655273 103.81299805 -90.72851562 102.28320312 C-90.15894867 99.85382572 -89.58272348 97.42624867 -89 95 C-88.01 95.495 -88.01 95.495 -87 96 C-86.21109322 98.67459578 -85.54483442 101.30303347 -84.93359375 104.01953125 C-84.64167397 105.26879143 -84.64167397 105.26879143 -84.34385681 106.54328918 C-83.92244565 108.34999573 -83.50473962 110.15756952 -83.090271 111.96588135 C-81.98467322 116.78719734 -80.8515911 121.60207446 -79.72265625 126.41796875 C-79.37956421 127.88671448 -79.37956421 127.88671448 -79.02954102 129.38513184 C-76.89896228 138.48745023 -74.65778068 147.55983323 -72.375 156.625 C-72.00840924 158.0849473 -71.64187255 159.54490819 -71.27539062 161.00488281 C-69.60547124 167.65073896 -67.92579766 174.29411754 -66.24414062 180.93701172 C-65.48673699 183.93179584 -64.73194875 186.92723561 -63.9776001 189.92279053 C-63.4499411 192.01321222 -62.91818703 194.10256307 -62.38623047 196.19189453 C-62.07186035 197.4395459 -61.75749023 198.68719727 -61.43359375 199.97265625 C-61.15572021 201.06843994 -60.87784668 202.16422363 -60.59155273 203.29321289 C-60 206 -60 206 -60 209 C-77.14475281 207.69762082 -92.77785247 204.82216522 -105.1875 191.875 C-111.28157152 184.58387872 -114.73667923 176.59072171 -117.1875 167.46484375 C-117.3947319 166.70530396 -117.60196381 165.94576416 -117.81547546 165.16320801 C-120.71800194 154.45192379 -123.51696212 143.71233966 -126.27739429 132.96366215 C-127.13321352 129.63160983 -127.9938076 126.30096122 -128.8659668 122.97314453 C-129.8891127 119.06886586 -130.89243973 115.15973634 -131.89453125 111.25 C-132.20695267 110.06752686 -132.51937408 108.88505371 -132.84126282 107.66674805 C-134.53552604 100.97507628 -135.43783546 94.90452137 -135 88 C-135.99 88 -136.98 88 -138 88 C-138.50690584 85.93918639 -139.00524619 83.87626474 -139.5 81.8125 C-139.7784375 80.66394531 -140.056875 79.51539063 -140.34375 78.33203125 C-140.91495385 75.43181171 -141.13283779 72.93903615 -141 70 C-139.02 70 -137.04 70 -135 70 C-135.13818532 66.52048477 -135.28682601 63.04149505 -135.4375 59.5625 C-135.47681641 58.56927734 -135.51613281 57.57605469 -135.55664062 56.55273438 C-135.59853516 55.60849609 -135.64042969 54.66425781 -135.68359375 53.69140625 C-135.72025146 52.81685791 -135.75690918 51.94230957 -135.79467773 51.04125977 C-135.78181066 49.0072598 -135.78181066 49.0072598 -137 48 C-137.23427778 45.98405418 -137.41336124 43.961526 -137.5625 41.9375 C-137.64628906 40.83277344 -137.73007812 39.72804688 -137.81640625 38.58984375 C-137.87699219 37.73519531 -137.93757813 36.88054687 -138 36 C-131.39672205 33.66114773 -124.74588901 31.88174409 -117.9375 30.25 C-109.5864753 28.20562787 -101.30734571 26.00011841 -93.0625 23.5625 C-92.07846191 23.27165527 -91.09442383 22.98081055 -90.08056641 22.68115234 C-88.0738565 22.0875265 -86.0671835 21.49377587 -84.06054688 20.89990234 C-70.16041565 16.8128025 -56.23125823 12.97004105 -42.11523438 9.70263672 C-36.43923736 8.37801793 -30.89080154 6.82221427 -25.3359375 5.05078125 C-21.05318838 3.70176543 -16.75268123 2.42838852 -12.4375 1.1875 C-11.27504761 0.84041992 -11.27504761 0.84041992 -10.08911133 0.48632812 C-6.31072545 -0.58833881 -3.75224421 -1.18127171 0 0 Z " fill="#691EAF" transform="translate(569,223)"/>
<path d="M0 0 C16.5 0 33 0 50 0 C59.87150812 38.160009 59.87150812 38.160009 63.37011719 53.29345703 C64.11370227 56.4885672 64.87359441 59.67966315 65.6328125 62.87109375 C66.1930743 65.24730958 66.75297416 67.62361077 67.3125 70 C67.71311646 71.67654663 67.71311646 71.67654663 68.12182617 73.38696289 C68.36650635 74.43489014 68.61118652 75.48281738 68.86328125 76.5625 C69.08282471 77.49191406 69.30236816 78.42132813 69.52856445 79.37890625 C69.99646582 81.9803506 70.08671872 84.363274 70 87 C63.5889857 89.95005542 56.98983986 91.94050098 50.1875 93.75 C49.36338623 93.97260498 48.53927246 94.19520996 47.69018555 94.42456055 C46.899104 94.62992432 46.10802246 94.83528809 45.29296875 95.046875 C44.5868042 95.23088867 43.88063965 95.41490234 43.15307617 95.60449219 C40.73148995 96.04932376 38.45682775 96.06557991 36 96 C35.20576195 91.91716259 34.41509573 87.83364086 33.625 83.75 C33.29242188 82.04070312 33.29242188 82.04070312 32.953125 80.296875 C31.52064168 72.8816672 30.20187952 65.45607295 29 58 C25.68320301 61.02093247 24.45600375 64.49280564 22.9375 68.625 C20.26538462 75.86730769 20.26538462 75.86730769 18 77 C17.83918945 76.32122803 17.67837891 75.64245605 17.51269531 74.94311523 C14.77591476 63.41135268 12.03315518 51.89235297 8.9296875 40.453125 C6.31731808 30.75003858 3.95704946 20.99014958 1.75 11.1875 C1.5746875 10.41623779 1.399375 9.64497559 1.21875 8.8503418 C0.55036199 5.83888998 0 3.09493486 0 0 Z " fill="#A32273" transform="translate(392,150)"/>
<path d="M0 0 C0.15150764 0.82300095 0.15150764 0.82300095 0.30607605 1.66262817 C1.80607422 9.49782498 3.76058864 17.20391908 5.73828125 24.9296875 C6.10482351 26.36957936 6.47112608 27.80953225 6.83720398 29.24954224 C7.79806416 33.0267725 8.7618849 36.80324074 9.72644043 40.57952881 C10.88076301 45.10076583 12.03187402 49.62282122 13.18319607 54.14482307 C14.1102652 57.78597388 15.0378843 61.42698162 15.96705627 65.06759644 C17.51960064 71.15420672 19.06653561 77.24186033 20.57202148 83.34033203 C20.79967697 84.26178009 21.02733246 85.18322815 21.2618866 86.13259888 C21.66102001 87.75449187 22.05750374 89.37704104 22.45039368 91.00045776 C26.91611884 109.16627394 35.58494647 125.05584444 51.53125 135.5390625 C58.31455374 139.55323275 65.42759943 141.91324243 73 144 C73 144.33 73 144.66 73 145 C51.22 145 29.44 145 7 145 C0.11622406 119.75948823 0.11622406 119.75948823 -2.5078125 109.12890625 C-2.94696487 107.3644944 -2.94696487 107.3644944 -3.39498901 105.56443787 C-4.30731971 101.89769861 -5.21642495 98.23017147 -6.125 94.5625 C-7.03914902 90.87804829 -7.9540504 87.19378702 -8.87030029 83.50985718 C-9.45512512 81.15843185 -10.03885147 78.806733 -10.62139893 76.45474243 C-11.80740895 71.68510094 -13.00186829 66.92224116 -14.31933594 62.18701172 C-14.51042938 61.49872787 -14.70152283 60.81044403 -14.89840698 60.1013031 C-15.37844043 58.39681072 -15.87178195 56.69607997 -16.36669922 54.99584961 C-17.67327734 48.81504002 -16.82310876 43.95461423 -15 38 C-14.50825247 35.4169745 -14.04998465 32.84339328 -13.625 30.25 C-13.23020952 27.98160606 -12.82985371 25.71422857 -12.4296875 23.44677734 C-12.13397777 21.76291205 -11.84255489 20.07829011 -11.5546875 18.39306641 C-11.1006833 15.77821382 -10.61607402 13.17061554 -10.125 10.5625 C-9.98787598 9.73975586 -9.85075195 8.91701172 -9.70947266 8.06933594 C-9.2578125 5.75390625 -9.2578125 5.75390625 -8 2 C-5.06369418 0.15660034 -3.45315821 0 0 0 Z " fill="#731D9F" transform="translate(415,300)"/>
<path d="M0 0 C-2.69040067 21.20196349 -9.74473692 41.54912659 -26.1015625 55.91796875 C-34.36947685 61.85705008 -44.10554579 65.02538279 -54.1875 65.5625 C-54.93708984 65.60568359 -55.68667969 65.64886719 -56.45898438 65.69335938 C-58.30578375 65.79922685 -60.15286834 65.9000976 -62 66 C-60.62378288 58.87423199 -59.06424588 51.80542774 -57.3984375 44.7421875 C-57.1571109 43.71312286 -56.9157843 42.68405823 -56.66714478 41.62380981 C-55.90462654 38.37384505 -55.13985219 35.12441619 -54.375 31.875 C-53.85401674 29.6562852 -53.33318198 27.43753552 -52.8125 25.21875 C-51.54338246 19.81209579 -50.27241789 14.40587839 -49 9 C-42.9876333 7.71049253 -36.97363647 6.42898892 -30.95800781 5.15478516 C-28.91294665 4.72044448 -26.86834324 4.28394259 -24.82421875 3.84521484 C-21.88139415 3.21399614 -18.93699635 2.59063705 -15.9921875 1.96875 C-15.0825827 1.77188599 -14.17297791 1.57502197 -13.23580933 1.37219238 C-8.74423444 0.43160017 -4.61958234 -0.23928772 0 0 Z " fill="#C81F4D" transform="translate(146,385)"/>
<path d="M0 0 C1.65 0 3.3 0 5 0 C5 4.62 5 9.24 5 14 C6.65 14 8.3 14 10 14 C10 20.93 10 27.86 10 35 C8.35 35 6.7 35 5 35 C5.08121094 36.2375 5.16242188 37.475 5.24609375 38.75 C5.81101992 51.53082963 3.74162813 62.02826453 -0.2109375 74.14453125 C-1.44310538 77.96425168 -2.38296413 81.67714422 -3.0390625 85.63671875 C-3.25900879 86.950354 -3.25900879 86.950354 -3.48339844 88.29052734 C-3.73682774 89.92264999 -3.95843067 91.56016718 -4.14160156 93.20166016 C-4.4921875 95.39453125 -4.4921875 95.39453125 -6 99 C-8.87920768 100.63022822 -11.78453942 101.31213222 -15 102 C-16.46165843 102.42625931 -17.92049854 102.86242459 -19.375 103.3125 C-20.21675781 103.56128906 -21.05851562 103.81007813 -21.92578125 104.06640625 C-24.2855046 104.78301855 -26.63367772 105.52036758 -28.98046875 106.27734375 C-41.2247655 110.21971756 -53.56677183 113.72646462 -65.96337891 117.15625 C-70.5021892 118.41739555 -75.03331362 119.70477135 -79.5625 121 C-80.40321045 121.24032959 -81.2439209 121.48065918 -82.11010742 121.72827148 C-87.7777946 123.35291873 -93.4382462 125.00163992 -99.09667969 126.65820312 C-103.11102487 127.83270033 -107.12701726 129.00148104 -111.14355469 130.16845703 C-113.0172973 130.71392432 -114.89037042 131.26169778 -116.76269531 131.81201172 C-119.27698469 132.54962921 -121.79417337 133.27630728 -124.3125 134 C-125.05330811 134.21986572 -125.79411621 134.43973145 -126.55737305 134.66625977 C-131.65719613 136.11426796 -131.65719613 136.11426796 -135 135 C-129.14679507 132.37285213 -123.29256383 129.74800241 -117.4375 127.125 C-116.5698703 126.73628723 -115.7022406 126.34757446 -114.80831909 125.94708252 C-104.58302973 121.36797912 -94.34950622 116.81406097 -84.0625 112.375 C-76.43211431 109.07819404 -68.87678279 105.66877982 -61.36181641 102.11523438 C-57.15788328 100.13016444 -52.95030524 98.15300363 -48.73730469 96.18725586 C-46.25098491 95.02679161 -43.77235614 93.85169019 -41.29785156 92.66625977 C-31.18465194 87.88359896 -31.18465194 87.88359896 -26.03515625 86.63671875 C-22.07515862 85.66921406 -19.15431344 84.73866452 -16 82 C-13.0898192 75.83349354 -12.39272401 68.93942353 -11.48583984 62.25 C-10.67012383 56.79331075 -9.40863713 51.4401513 -8.1875 46.0625 C-7.76228623 44.11632929 -7.33891681 42.16975407 -6.91796875 40.22265625 C-6.61197917 38.81510417 -6.30598958 37.40755208 -6 36 C-2.125 37.875 -2.125 37.875 -1 39 C-0.67 37.68 -0.34 36.36 0 35 C-1.65 35 -3.3 35 -5 35 C-5 28.07 -5 21.14 -5 14 C-3.35 14 -1.7 14 0 14 C0 9.38 0 4.76 0 0 Z " fill="#CF213E" transform="translate(160,259)"/>
<path d="M0 0 C-0.65782471 0.26103516 -1.31564941 0.52207031 -1.9934082 0.79101562 C-13.2121886 5.24769785 -24.42908923 9.70823305 -35.5625 14.375 C-36.30346924 14.68373047 -37.04443848 14.99246094 -37.80786133 15.31054688 C-41.28508526 16.77799187 -44.68322009 18.32238993 -48.04296875 20.04296875 C-51.85204738 21.97764983 -55.7327607 23.49546527 -59.75 24.9375 C-65.80119175 27.14838949 -71.74232313 29.5283569 -77.64453125 32.1171875 C-80 33 -80 33 -83 33 C-83 33.66 -83 34.32 -83 35 C-83.83515137 35.28697754 -84.67030273 35.57395508 -85.53076172 35.86962891 C-91.96105536 38.11760325 -98.30320997 40.47690964 -104.5703125 43.1484375 C-105.50360382 43.54497528 -105.50360382 43.54497528 -106.45574951 43.94952393 C-108.99948587 45.03328242 -111.54116824 46.12134423 -114.07714844 47.22314453 C-115.96653268 48.0417513 -117.86148495 48.84607342 -119.7578125 49.6484375 C-120.8627002 50.12458496 -121.96758789 50.60073242 -123.10595703 51.09130859 C-126 52 -126 52 -130 51 C-130.33 57.27 -130.66 63.54 -131 70 C-129.35 70 -127.7 70 -126 70 C-126 75.94 -126 81.88 -126 88 C-127.65 88 -129.3 88 -131 88 C-131 91.3 -131 94.6 -131 98 C-126.545 97.01 -126.545 97.01 -122 96 C-121.67 97.65 -121.34 99.3 -121 101 C-121.33 100.01 -121.66 99.02 -122 98 C-123.0828125 98.495 -123.0828125 98.495 -124.1875 99 C-127.01697427 100.00603529 -129.02895466 100.16977402 -132 100 C-132 101.65 -132 103.3 -132 105 C-134.17692568 100.79127702 -135.12422287 97.56516121 -135.0625 92.8125 C-135.04896484 91.46091797 -135.04896484 91.46091797 -135.03515625 90.08203125 C-135.02355469 89.39496094 -135.01195312 88.70789063 -135 88 C-135.99 88 -136.98 88 -138 88 C-138.50690584 85.93918639 -139.00524619 83.87626474 -139.5 81.8125 C-139.7784375 80.66394531 -140.056875 79.51539063 -140.34375 78.33203125 C-140.91495385 75.43181171 -141.13283779 72.93903615 -141 70 C-139.02 70 -137.04 70 -135 70 C-135.13818532 66.52048477 -135.28682601 63.04149505 -135.4375 59.5625 C-135.47681641 58.56927734 -135.51613281 57.57605469 -135.55664062 56.55273438 C-135.59853516 55.60849609 -135.64042969 54.66425781 -135.68359375 53.69140625 C-135.72025146 52.81685791 -135.75690918 51.94230957 -135.79467773 51.04125977 C-135.78181066 49.0072598 -135.78181066 49.0072598 -137 48 C-137.23427778 45.98405418 -137.41336124 43.961526 -137.5625 41.9375 C-137.64628906 40.83277344 -137.73007812 39.72804688 -137.81640625 38.58984375 C-137.87699219 37.73519531 -137.93757813 36.88054687 -138 36 C-131.39672205 33.66114773 -124.74588901 31.88174409 -117.9375 30.25 C-109.5864753 28.20562787 -101.30734571 26.00011841 -93.0625 23.5625 C-92.07846191 23.27165527 -91.09442383 22.98081055 -90.08056641 22.68115234 C-88.0738565 22.0875265 -86.0671835 21.49377587 -84.06054688 20.89990234 C-70.16041565 16.8128025 -56.23125823 12.97004105 -42.11523438 9.70263672 C-36.43923736 8.37801793 -30.89080154 6.82221427 -25.3359375 5.05078125 C-21.05318838 3.70176543 -16.75268123 2.42838852 -12.4375 1.1875 C-11.27504761 0.84041992 -11.27504761 0.84041992 -10.08911133 0.48632812 C-6.31072545 -0.58833881 -3.75224421 -1.18127171 0 0 Z " fill="#801F8A" transform="translate(569,223)"/>
<path d="M0 0 C0 4.62 0 9.24 0 14 C-1.65 14 -3.3 14 -5 14 C-5 14.99 -5 15.98 -5 17 C-3.68 17 -2.36 17 -1 17 C-1 21.29 -1 25.58 -1 30 C-1.66 30 -2.32 30 -3 30 C-3 42.21 -3 54.42 -3 67 C-6.3 67 -9.6 67 -13 67 C-13.11601562 67.69351563 -13.23203125 68.38703125 -13.3515625 69.1015625 C-14.07746541 72.34626105 -15.16190191 75.27976184 -16.375 78.375 C-16.82101562 79.51453125 -17.26703125 80.6540625 -17.7265625 81.828125 C-19.09814068 85.24444856 -20.53226552 88.62421069 -22 92 C-22.33 92.99 -22.66 93.98 -23 95 C-23.66 95 -24.32 95 -25 95 C-34.16826187 69.15677642 -34.16826187 69.15677642 -35 64 C-35.62648438 63.86722656 -36.25296875 63.73445313 -36.8984375 63.59765625 C-37.71570313 63.42105469 -38.53296875 63.24445313 -39.375 63.0625 C-40.18710937 62.88847656 -40.99921875 62.71445312 -41.8359375 62.53515625 C-44 62 -44 62 -46 61 C-46 58.03 -46 55.06 -46 52 C-44.02 52 -42.04 52 -40 52 C-40 46.39 -40 40.78 -40 35 C-41.98 35 -43.96 35 -46 35 C-46.08746928 30.95847085 -46.14054982 26.91718695 -46.1875 22.875 C-46.21263672 21.73289062 -46.23777344 20.59078125 -46.26367188 19.4140625 C-46.35493909 8.9487553 -46.35493909 8.9487553 -43 4 C-40.36752465 6.63247535 -39.7692065 9.51795291 -38.75 13 C-37.40161454 17.5409243 -36.02044221 22.03417509 -34.33984375 26.46484375 C-30.42615878 36.94637452 -29.23684858 45.83537735 -30 57 C-28.02 57 -26.04 57 -24 57 C-24 60.3 -24 63.6 -24 67 C-22.35 67 -20.7 67 -19 67 C-19 63.7 -19 60.4 -19 57 C-17.02 57 -15.04 57 -13 57 C-13 41.16 -13 25.32 -13 9 C-13.99 9 -14.98 9 -16 9 C-16 7.02 -16 5.04 -16 3 C-10.80152018 0.00087703 -5.94052081 0 0 0 Z " fill="#2A2227" transform="translate(371,268)"/>
<path d="M0 0 C3.3 0.33 6.6 0.66 10 1 C10 2.32 10 3.64 10 5 C11.32 5 12.64 5 14 5 C14 8.63 14 12.26 14 16 C14.66 16 15.32 16 16 16 C16.185625 17.03125 16.37125 18.0625 16.5625 19.125 C17.42812333 22.76836984 18.89695328 25.78764123 20.69750977 29.06323242 C25.01992273 36.97362123 25.75979121 41.96256247 23.23828125 50.61328125 C22.55061114 52.77021724 21.81147781 54.88709552 21 57 C18.525 57.495 18.525 57.495 16 58 C15.67 57.01 15.34 56.02 15 55 C13.02 55 11.04 55 9 55 C9 59.29 9 63.58 9 68 C6 65 6 65 5.70703125 62.30078125 C5.75923828 60.82158203 5.75923828 60.82158203 5.8125 59.3125 C5.85310547 57.82169922 5.85310547 57.82169922 5.89453125 56.30078125 C5.92933594 55.54152344 5.96414062 54.78226562 6 54 C3.69 54 1.38 54 -1 54 C-1 41.46 -1 28.92 -1 16 C-0.01 16 0.98 16 2 16 C1.34 10.72 0.68 5.44 0 0 Z " fill="#BA1B51" transform="translate(239,258)"/>
<path d="M0 0 C0.70510922 2.66307343 1.38916349 5.32887628 2.0625 8 C2.26166016 8.74378906 2.46082031 9.48757813 2.66601562 10.25390625 C3.95186369 15.442416 3.93637387 19.73326434 3 25 C2.74248353 26.86373523 2.49164173 28.72840018 2.24609375 30.59375 C1.97702265 32.56256294 1.70748411 34.53131205 1.4375 36.5 C1.29892578 37.51320313 1.16035156 38.52640625 1.01757812 39.5703125 C0.67879535 42.04693141 0.33959338 44.52349213 0 47 C-0.99 47 -1.98 47 -3 47 C-3.26554687 46.28972656 -3.53109375 45.57945312 -3.8046875 44.84765625 C-4.15789062 43.92855469 -4.51109375 43.00945312 -4.875 42.0625 C-5.22304688 41.14597656 -5.57109375 40.22945313 -5.9296875 39.28515625 C-6.7819086 36.85058944 -6.7819086 36.85058944 -9 36 C-9.10957031 36.63808594 -9.21914063 37.27617187 -9.33203125 37.93359375 C-9.56986328 39.17302734 -9.56986328 39.17302734 -9.8125 40.4375 C-9.96332031 41.26121094 -10.11414063 42.08492188 -10.26953125 42.93359375 C-10.63111328 43.95646484 -10.63111328 43.95646484 -11 45 C-12.485 45.495 -12.485 45.495 -14 46 C-14.30292969 44.8140625 -14.60585938 43.628125 -14.91796875 42.40625 C-15.34013402 40.77057185 -15.76339198 39.1351755 -16.1875 37.5 C-16.40873535 36.64664063 -16.6299707 35.79328125 -16.85791016 34.9140625 C-18.53818488 28.52925536 -20.42419025 22.2366321 -22.56323242 15.99023438 C-24.1066998 11.32009941 -24.1066998 11.32009941 -23 8 C-21.35766602 7.03271484 -21.35766602 7.03271484 -19.25390625 6.2109375 C-18.49916016 5.90929687 -17.74441406 5.60765625 -16.96679688 5.296875 C-16.17337891 4.99265625 -15.37996094 4.6884375 -14.5625 4.375 C-13.00118073 3.75811957 -11.43997738 3.1409456 -9.87890625 2.5234375 C-8.83585327 2.1200415 -8.83585327 2.1200415 -7.77172852 1.70849609 C-3.49931082 0 -3.49931082 0 0 0 Z " fill="#7C1E93" transform="translate(471,277)"/>
<path d="M0 0 C0.99 0 1.98 0 3 0 C3 4.95 3 9.9 3 15 C4.98 15 6.96 15 9 15 C9 23.25 9 31.5 9 40 C7.02 40 5.04 40 3 40 C3 43.96 3 47.92 3 52 C2.34 52 1.68 52 1 52 C0.67 52.99 0.34 53.98 0 55 C0 50.05 0 45.1 0 40 C-1.98 40 -3.96 40 -6 40 C-6 31.75 -6 23.5 -6 15 C-4.02 15 -2.04 15 0 15 C0 10.05 0 5.1 0 0 Z " fill="#DD2738" transform="translate(201,212)"/>
<path d="M0 0 C1.32 0 2.64 0 4 0 C4 6.6 4 13.2 4 20 C5.65 20 7.3 20 9 20 C9 25.94 9 31.88 9 38 C7.35 38 5.7 38 4 38 C4 44.6 4 51.2 4 58 C2.68 58 1.36 58 0 58 C0 51.07 0 44.14 0 37 C-1.98 37 -3.96 37 -6 37 C-6 31.39 -6 25.78 -6 20 C-4.02 20 -2.04 20 0 20 C0 13.4 0 6.8 0 0 Z " fill="#9D1C63" transform="translate(270,305)"/>
<path d="M0 0 C0.33 0 0.66 0 1 0 C1 7.59 1 15.18 1 23 C2.98 23 4.96 23 7 23 C7 28.61 7 34.22 7 40 C5.02 40 3.04 40 1 40 C1 42.97 1 45.94 1 49 C0.01 48.67 -0.98 48.34 -2 48 C-4.69433317 49.87197454 -4.69433317 49.87197454 -7 52 C-6.67 50.35 -6.34 48.7 -6 47 C-5.01 47 -4.02 47 -3 47 C-3 44.69 -3 42.38 -3 40 C-4.98 40 -6.96 40 -9 40 C-9 34.72 -9 29.44 -9 24 C-7.02 24 -5.04 24 -3 24 C-3 18.39 -3 12.78 -3 7 C-3.66 6.67 -4.32 6.34 -5 6 C-4.01 5.67 -3.02 5.34 -2 5 C-0.78130071 2.49552484 -0.78130071 2.49552484 0 0 Z " fill="#9C1C68" transform="translate(324,280)"/>
<path d="M0 0 C0.99 0 1.98 0 3 0 C3 2.31 3 4.62 3 7 C4.98 7 6.96 7 9 7 C9 12.94 9 18.88 9 25 C7.35 25 5.7 25 4 25 C4 28.3 4 31.6 4 35 C6.97 34.34 9.94 33.68 13 33 C13.33 34.65 13.66 36.3 14 38 C13.67 37.01 13.34 36.02 13 35 C11.9171875 35.495 11.9171875 35.495 10.8125 36 C7.98302573 37.00603529 5.97104534 37.16977402 3 37 C3 38.65 3 40.3 3 42 C0.82307432 37.79127702 -0.12422287 34.56516121 -0.0625 29.8125 C-0.05347656 28.91144531 -0.04445313 28.01039063 -0.03515625 27.08203125 C-0.02355469 26.39496094 -0.01195312 25.70789063 0 25 C-0.99 25 -1.98 25 -3 25 C-3.50690584 22.93918639 -4.00524619 20.87626474 -4.5 18.8125 C-4.7784375 17.66394531 -5.056875 16.51539063 -5.34375 15.33203125 C-5.91495385 12.43181171 -6.13283779 9.93903615 -6 7 C-4.02 7 -2.04 7 0 7 C0 4.69 0 2.38 0 0 Z " fill="#791B9A" transform="translate(434,286)"/>
<path d="M0 0 C0.99 0 1.98 0 3 0 C3 4.62 3 9.24 3 14 C4.65 14 6.3 14 8 14 C8 20.27 8 26.54 8 33 C6.02 33 4.04 33 2 33 C2 34.65 2 36.3 2 38 C1.01 38.495 1.01 38.495 0 39 C0 37.35 0 35.7 0 34 C-1.98 34 -3.96 34 -6 34 C-6 27.4 -6 20.8 -6 14 C-4.02 14 -2.04 14 0 14 C0 9.38 0 4.76 0 0 Z " fill="#E02539" transform="translate(161,260)"/>
<path d="M0 0 C0.33 0 0.66 0 1 0 C1 12.54 1 25.08 1 38 C2.98 38 4.96 38 7 38 C7 41.96 7 45.92 7 50 C-2.28687268 40.71312732 -2.28687268 40.71312732 -2.3840332 33.60351562 C-2.30069014 32.036039 -2.18846401 30.46989078 -2.05078125 28.90625 C-1.97358101 27.65805481 -1.97358101 27.65805481 -1.89482117 26.38464355 C-1.72626685 23.75396513 -1.52007663 21.12785741 -1.3125 18.5 C-1.1908522 16.7058974 -1.0716871 14.91162464 -0.95507812 13.1171875 C-0.66538146 8.74230091 -0.34192886 4.37110169 0 0 Z " fill="#431A2A" transform="translate(237,274)"/>
<path d="M0 0 C3.3 0.33 6.6 0.66 10 1 C10 2.32 10 3.64 10 5 C11.32 5 12.64 5 14 5 C14 8.3 14 11.6 14 15 C13.67 15 13.34 15 13 15 C13 12.03 13 9.06 13 6 C11.35 5.67 9.7 5.34 8 5 C8 4.01 8 3.02 8 2 C6.02 2 4.04 2 2 2 C2.165 2.99 2.33 3.98 2.5 5 C3.07008441 9.05668759 3.2082796 12.90383459 3 17 C2.34 17.66 1.68 18.32 1 19 C0.75470419 21.57579385 0.62658207 24.05229007 0.5859375 26.6328125 C0.56657135 27.38464813 0.5472052 28.13648376 0.5272522 28.91110229 C0.46740853 31.31561899 0.42105274 33.72018344 0.375 36.125 C0.33682454 37.75392728 0.29777307 39.38283428 0.2578125 41.01171875 C0.16170334 45.00764806 0.07769059 49.00367187 0 53 C1.65 53 3.3 53 5 53 C5 53.33 5 53.66 5 54 C3.02 54 1.04 54 -1 54 C-1 41.46 -1 28.92 -1 16 C-0.01 16 0.98 16 2 16 C1.34 10.72 0.68 5.44 0 0 Z " fill="#B32C57" transform="translate(239,258)"/>
<path d="M0 0 C3.85816871 1.76348905 5.73880807 3.83444887 8.375 7.1875 C9.54482422 8.65703125 9.54482422 8.65703125 10.73828125 10.15625 C11.48464844 11.0946875 12.23101562 12.033125 13 13 C14.97841559 15.35314604 16.98648362 17.67671187 19 20 C18.67 20.66 18.34 21.32 18 22 C7.69040968 10.74953445 7.69040968 10.74953445 3 5 C2.67 4.67 2.34 4.34 2 4 C-1.74822014 12.8385977 -3.80112758 21.51287252 -2 31 C-1.80366066 32.51971746 -1.61576954 34.04055708 -1.4375 35.5625 C-1.293125 36.696875 -1.14875 37.83125 -1 39 C-5.10280616 32.84579076 -5.8977834 26.23456529 -5 19 C-3.61367205 12.59551722 -1.80972851 6.2952699 0 0 Z " fill="#BB2D3B" transform="translate(213,170)"/>
<path d="M0 0 C0.66 0.33 1.32 0.66 2 1 C1.34 1.66 0.68 2.32 0 3 C11.88 3.33 23.76 3.66 36 4 C36.33 3.34 36.66 2.68 37 2 C37 3.32 37 4.64 37 6 C23.14 6 9.28 6 -5 6 C-5 5.34 -5 4.68 -5 4 C-3.37373596 2.61767557 -1.7074998 1.28062485 0 0 Z " fill="#912352" transform="translate(137,444)"/>
<path d="M0 0 C1.65 0 3.3 0 5 0 C5 3.63 5 7.26 5 11 C6.32 11.33 7.64 11.66 9 12 C8.67 13.32 8.34 14.64 8 16 C8 15.01 8 14.02 8 13 C6.02 13.33 4.04 13.66 2 14 C1.67 17.63 1.34 21.26 1 25 C0.67 25 0.34 25 0 25 C0 16.75 0 8.5 0 0 Z " fill="#71195C" transform="translate(390,227)"/>
<path d="M0 0 C-1.10456543 0.43868408 -1.10456543 0.43868408 -2.23144531 0.88623047 C-5.57168809 2.21400594 -8.91085254 3.54447253 -12.25 4.875 C-13.98830078 5.56529297 -13.98830078 5.56529297 -15.76171875 6.26953125 C-17.43427734 6.93662109 -17.43427734 6.93662109 -19.140625 7.6171875 C-20.68024902 8.22989502 -20.68024902 8.22989502 -22.25097656 8.85498047 C-24.94975726 9.9185564 -24.94975726 9.9185564 -27.17871094 11.21142578 C-29 12 -29 12 -32 11 C-30.68 10.67 -29.36 10.34 -28 10 C-28 8.68 -28 7.36 -28 6 C-24.08815891 4.79618491 -20.16989104 3.61481281 -16.25 2.4375 C-15.13882813 2.09525391 -14.02765625 1.75300781 -12.8828125 1.40039062 C-11.81289063 1.08134766 -10.74296875 0.76230469 -9.640625 0.43359375 C-8.16384277 -0.01415405 -8.16384277 -0.01415405 -6.65722656 -0.47094727 C-3.97924585 -1.00413214 -2.5392801 -0.90876725 0 0 Z " fill="#61227A" transform="translate(569,223)"/>
<path d="M0 0 C-5.06424645 2.72460196 -10.56806697 4.07756337 -16.0625 5.6875 C-17.16400391 6.02072266 -18.26550781 6.35394531 -19.40039062 6.69726562 C-20.45548828 7.00728516 -21.51058594 7.31730469 -22.59765625 7.63671875 C-23.56195557 7.92248779 -24.52625488 8.20825684 -25.51977539 8.50268555 C-28 9 -28 9 -31 8 C-27.35041973 6.25333818 -23.67840454 4.56000427 -20 2.875 C-18.97003906 2.38128906 -17.94007812 1.88757813 -16.87890625 1.37890625 C-10.37576423 -1.56200511 -6.72613795 -2.70015634 0 0 Z " fill="#C62736" transform="translate(56,386)"/>
<path d="M0 0 C0.33 0 0.66 0 1 0 C1 4.95 1 9.9 1 15 C-0.65 15 -2.3 15 -4 15 C-4 18.3 -4 21.6 -4 25 C-1.03 24.34 1.94 23.68 5 23 C5.33 24.65 5.66 26.3 6 28 C5.67 27.01 5.34 26.02 5 25 C4.278125 25.33 3.55625 25.66 2.8125 26 C-0.01697427 27.00603529 -2.02895466 27.16977402 -5 27 C-5 28.65 -5 30.3 -5 32 C-7.39073445 28.17482487 -7.55966552 24.40334476 -8 20 C-7.34 21.32 -6.68 22.64 -6 24 C-5.67 20.7 -5.34 17.4 -5 14 C-3.35 14 -1.7 14 0 14 C0 9.38 0 4.76 0 0 Z " fill="#682180" transform="translate(442,296)"/>
<path d="M0 0 C1.98 0 3.96 0 6 0 C5.67 0.66 5.34 1.32 5 2 C4.84932786 3.4465242 4.75138964 4.8987934 4.68359375 6.3515625 C4.64169922 7.20234375 4.59980469 8.053125 4.55664062 8.9296875 C4.51732422 9.81914062 4.47800781 10.70859375 4.4375 11.625 C4.39431641 12.5221875 4.35113281 13.419375 4.30664062 14.34375 C4.20043139 16.56234283 4.09838806 18.7810488 4 21 C3.67 21 3.34 21 3 21 C2.87625 20.030625 2.7525 19.06125 2.625 18.0625 C2.315625 16.5465625 2.315625 16.5465625 2 15 C1.34 14.67 0.68 14.34 0 14 C0 9.38 0 4.76 0 0 Z " fill="#74187E" transform="translate(434,272)"/>
<path d="M0 0 C1.32 0 2.64 0 4 0 C6.1519437 3.22791555 6.20086443 4.28400809 6 8 C4.35 8 2.7 8 1 8 C1 14.93 1 21.86 1 29 C-0.32 28.67 -1.64 28.34 -3 28 C-2.01 28 -1.02 28 0 28 C0 27.37432129 0 26.74864258 0 26.10400391 C0 17.40266927 0 8.70133464 0 0 Z " fill="#9A1F38" transform="translate(228,236)"/>
<path d="M0 0 C0.99 0 1.98 0 3 0 C2.34 1.65 1.68 3.3 1 5 C1.99 5 2.98 5 4 5 C4 21.17 4 37.34 4 54 C3.67 54 3.34 54 3 54 C3 38.16 3 22.32 3 6 C2.01 6 1.02 6 0 6 C0 4.02 0 2.04 0 0 Z " fill="#481B3B" transform="translate(355,271)"/>
<path d="M0 0 C1.74120117 0.00676758 1.74120117 0.00676758 3.51757812 0.01367188 C6.36593934 0.02539353 9.21419222 0.0418024 12.0625 0.0625 C11.7325 1.7125 11.4025 3.3625 11.0625 5.0625 C10.7325 4.0725 10.4025 3.0825 10.0625 2.0625 C0.1625 2.0625 -9.7375 2.0625 -19.9375 2.0625 C-19.9375 1.7325 -19.9375 1.4025 -19.9375 1.0625 C-13.29708878 -0.16149452 -6.73528303 -0.04977753 0 0 Z " fill="#B62F33" transform="translate(191.9375,150.9375)"/>
<path d="M0 0 C0.99 0.33 1.98 0.66 3 1 C3 7.27 3 13.54 3 20 C2.01 20 1.02 20 0 20 C0 13.4 0 6.8 0 0 Z " fill="#CD1C41" transform="translate(225,244)"/>
<path d="M0 0 C0.33 0 0.66 0 1 0 C1.67674951 13.76057327 -1.28646871 27.80511222 -5 41 C-5.33 41 -5.66 41 -6 41 C-5.67728945 32.15773101 -4.30304495 23.79272505 -2.45996094 15.15722656 C-1.38735332 10.11095858 -0.56661432 5.12904006 0 0 Z " fill="#89235F" transform="translate(387,196)"/>
<path d="M0 0 C2.475 0.99 2.475 0.99 5 2 C5 5.63 5 9.26 5 13 C6.32 13.33 7.64 13.66 9 14 C7.33388095 14.042721 5.66617115 14.04063832 4 14 C3 13 3 13 2.90234375 10.93359375 C2.91974609 9.69802734 2.91974609 9.69802734 2.9375 8.4375 C2.94652344 7.61121094 2.95554687 6.78492188 2.96484375 5.93359375 C2.97644531 5.29550781 2.98804688 4.65742188 3 4 C2.01 4.495 2.01 4.495 1 5 C0.53476937 6.89533342 0.53476937 6.89533342 0.375 9.0625 C0.25125 10.361875 0.1275 11.66125 0 13 C-0.33 13 -0.66 13 -1 13 C-1 11.35 -1 9.7 -1 8 C-1.66 8 -2.32 8 -3 8 C-2.37240135 5.07120629 -1.41377341 2.63904371 0 0 Z " fill="#7B1E53" transform="translate(293,322)"/>
<path d="M0 0 C0.99 0 1.98 0 3 0 C3 1.65 3 3.3 3 5 C4.32 5 5.64 5 7 5 C7 6.65 7 8.3 7 10 C4.69 10.33 2.38 10.66 0 11 C0 7.37 0 3.74 0 0 Z " fill="#831663" transform="translate(415,238)"/>
<path d="M0 0 C0.33 0 0.66 0 1 0 C1 7.26 1 14.52 1 22 C0.01 22 -0.98 22 -2 22 C-2 17.71 -2 13.42 -2 9 C-3.98 9 -5.96 9 -8 9 C-8 8.67 -8 8.34 -8 8 C-5.69 8 -3.38 8 -1 8 C-0.67 5.36 -0.34 2.72 0 0 Z " fill="#8F1F76" transform="translate(373,259)"/>
<path d="M0 0 C0.66 0.66 1.32 1.32 2 2 C1.67851235 6.39366451 0.26243191 10.34742562 -1.16796875 14.4765625 C-2.63628154 18.92975528 -3.80534735 23.46709811 -5 28 C-6.13120927 24.60834465 -5.84979549 22.32267822 -5.0390625 18.8671875 C-4.81476563 17.89652344 -4.59046875 16.92585938 -4.359375 15.92578125 C-4.11703125 14.91902344 -3.8746875 13.91226562 -3.625 12.875 C-3.39039063 11.86050781 -3.15578125 10.84601563 -2.9140625 9.80078125 C-1.16171288 2.32342575 -1.16171288 2.32342575 0 0 Z " fill="#B32C44" transform="translate(192,258)"/>
<path d="M0 0 C1.32 0 2.64 0 4 0 C4 4.62 4 9.24 4 14 C3.34 13.67 2.68 13.34 2 13 C2 12.01 2 11.02 2 10 C1.34 10 0.68 10 0 10 C0 6.7 0 3.4 0 0 Z " fill="#3F1F23" transform="translate(125,325)"/>
<path d="M0 0 C1.32 0 2.64 0 4 0 C4 2.97 4 5.94 4 9 C3.01 8.67 2.02 8.34 1 8 C-1.69433317 9.87197454 -1.69433317 9.87197454 -4 12 C-3.67 10.35 -3.34 8.7 -3 7 C-2.01 7 -1.02 7 0 7 C0 4.69 0 2.38 0 0 Z " fill="#902169" transform="translate(321,320)"/>
<path d="M0 0 C3.3 0.33 6.6 0.66 10 1 C10 2.32 10 3.64 10 5 C11.32 5 12.64 5 14 5 C14 8.3 14 11.6 14 15 C13.67 15 13.34 15 13 15 C13 12.03 13 9.06 13 6 C11.35 5.67 9.7 5.34 8 5 C8 4.01 8 3.02 8 2 C6.02 2 4.04 2 2 2 C2 4.97 2 7.94 2 11 C1.67 11 1.34 11 1 11 C0.67 7.37 0.34 3.74 0 0 Z " fill="#8D2F48" transform="translate(239,258)"/>
<path d="M0 0 C2 3 2 3 2 6 C3.65 6 5.3 6 7 6 C7.33 7.65 7.66 9.3 8 11 C7.01 11.33 6.02 11.66 5 12 C5 12.66 5 13.32 5 14 C5.66 14.33 6.32 14.66 7 15 C5.02 15 3.04 15 1 15 C1 13.68 1 12.36 1 11 C2.65 11 4.3 11 6 11 C6 9.68 6 8.36 6 7 C4.68 7.33 3.36 7.66 2 8 C0.23537317 4.91190305 0 3.76687864 0 0 Z " fill="#B72039" transform="translate(218,229)"/>
<path d="M0 0 C0.99 0.33 1.98 0.66 3 1 C4.1875 4.5625 4.1875 4.5625 5 8 C4.34 7.67 3.68 7.34 3 7 C3 6.34 3 5.68 3 5 C0.04070881 7.75520215 -2.03681826 10.46627288 -4 14 C-4.66 13.67 -5.32 13.34 -6 13 C-5.38125 11.96875 -4.7625 10.9375 -4.125 9.875 C-2.29301955 6.68527517 -1.0364253 3.54111979 0 0 Z " fill="#5F207F" transform="translate(463,333)"/>
<path d="M0 0 C2.31 0 4.62 0 7 0 C6.67 1.32 6.34 2.64 6 4 C4.68 4 3.36 4 2 4 C2 6.31 2 8.62 2 11 C1.34 11 0.68 11 0 11 C0 7.37 0 3.74 0 0 Z " fill="#7B1E66" transform="translate(370,286)"/>
<path d="M0 0 C3.3 0 6.6 0 10 0 C10 0.33 10 0.66 10 1 C8.741875 1.020625 7.48375 1.04125 6.1875 1.0625 C3.97705195 1.27388323 3.97705195 1.27388323 2 2 C0.54018555 4.50253905 -0.16922549 6.29873917 -1 9 C-1.71036937 10.65403348 -2.43987516 12.29996878 -3.1875 13.9375 C-3.53167969 14.70964844 -3.87585938 15.48179687 -4.23046875 16.27734375 C-4.48441406 16.84582031 -4.73835938 17.41429687 -5 18 C-6.35114472 14.94255252 -5.9224598 13.77959635 -4.78515625 10.546875 C-4.22254947 9.27604557 -3.64790949 8.01048782 -3.0625 6.75 C-2.77181641 6.1003125 -2.48113281 5.450625 -2.18164062 4.78125 C-1.46471025 3.18284785 -0.73371051 1.59076946 0 0 Z " fill="#75236C" transform="translate(358,335)"/>
<path d="M0 0 C0.33 0 0.66 0 1 0 C1 6.6 1 13.2 1 20 C2.65 20 4.3 20 6 20 C6 21.65 6 23.3 6 25 C3.33326659 23.81011895 1.87587035 23.1542253 0 21 C-0.77489234 17.40217639 -0.56503811 13.90945177 -0.375 10.25 C-0.34792969 9.26644531 -0.32085937 8.28289062 -0.29296875 7.26953125 C-0.22232587 4.84412577 -0.12376119 2.42318055 0 0 Z " fill="#48171E" transform="translate(154,274)"/>
<path d="M0 0 C2.4375 0.375 2.4375 0.375 5 1 C5.33 1.66 5.66 2.32 6 3 C-2.25 3 -10.5 3 -19 3 C-19 2.67 -19 2.34 -19 2 C-12.73 1.67 -6.46 1.34 0 1 C0 0.67 0 0.34 0 0 Z " fill="#5D1EB8" transform="translate(475,441)"/>
<path d="M0 0 C1.98 0 3.96 0 6 0 C5.01 0.66 4.02 1.32 3 2 C2.26393501 5.56769552 2.26393501 5.56769552 2 9 C2.66 9.33 3.32 9.66 4 10 C2.02 10.99 2.02 10.99 0 12 C0 8.04 0 4.08 0 0 Z " fill="#501D24" transform="translate(204,252)"/>
<path d="M0 0 C0.33 1.32 0.66 2.64 1 4 C9.415 3.505 9.415 3.505 18 3 C14.27933528 5.48044315 11.13459526 5.44381173 6.8125 5.625 C6.06291016 5.66367187 5.31332031 5.70234375 4.54101562 5.7421875 C2.69440801 5.83628216 0.8472381 5.91922319 -1 6 C-0.67 4.02 -0.34 2.04 0 0 Z " fill="#9B2543" transform="translate(85,445)"/>
<path d="M0 0 C0.33 0 0.66 0 1 0 C1 2.31 1 4.62 1 7 C0.67 7 0.34 7 0 7 C-0.33 11.29 -0.66 15.58 -1 20 C-1.33 20 -1.66 20 -2 20 C-2 14.72 -2 9.44 -2 4 C-2.66 3.67 -3.32 3.34 -4 3 C-3.01 2.67 -2.02 2.34 -1 2 C-0.67 1.34 -0.34 0.68 0 0 Z " fill="#9C1760" transform="translate(323,283)"/>
<path d="M0 0 C0.99 0 1.98 0 3 0 C2.67 2.97 2.34 5.94 2 9 C-1.67857143 5.32142857 -1.67857143 5.32142857 -2 2 C-1.34 1.34 -0.68 0.68 0 0 Z " fill="#791B4E" transform="translate(307,320)"/>
<path d="M0 0 C0.66 0 1.32 0 2 0 C2 5.61 2 11.22 2 17 C0.02 17 -1.96 17 -4 17 C-4 16.67 -4 16.34 -4 16 C-2.35 16 -0.7 16 1 16 C0.67 12.04 0.34 8.08 0 4 C-0.99 4.495 -0.99 4.495 -2 5 C-1.34 3.35 -0.68 1.7 0 0 Z " fill="#541839" transform="translate(319,287)"/>
<path d="M0 0 C-2.78230428 1.85486952 -4.84363607 2.72462112 -8 3.6875 C-8.86625 3.95949219 -9.7325 4.23148437 -10.625 4.51171875 C-13 5 -13 5 -16 4 C-14.27921959 3.1290621 -12.54793677 2.27885442 -10.8125 1.4375 C-9.84957031 0.96183594 -8.88664062 0.48617188 -7.89453125 -0.00390625 C-4.72281223 -1.0953885 -3.16301775 -0.96567452 0 0 Z " fill="#A02D38" transform="translate(41,390)"/>
<path d="M0 0 C-0.33 1.32 -0.66 2.64 -1 4 C-1 3.34 -1 2.68 -1 2 C-4.53647504 3.67517239 -5.7911563 4.49280817 -7.3125 8.1875 C-7.539375 9.115625 -7.76625 10.04375 -8 11 C-9.10272046 7.69183862 -9.21537818 5.29888363 -8 2 C-5.11090151 0.40339294 -3.30941204 0 0 0 Z " fill="#6E2270" transform="translate(415,300)"/>
<path d="M0 0 C0.99 0 1.98 0 3 0 C2.34 1.65 1.68 3.3 1 5 C1.99 5 2.98 5 4 5 C4 9.62 4 14.24 4 19 C3.67 19 3.34 19 3 19 C3 14.71 3 10.42 3 6 C2.01 6 1.02 6 0 6 C0 4.02 0 2.04 0 0 Z " fill="#441F30" transform="translate(355,271)"/>
<path d="M0 0 C1.98 0 3.96 0 6 0 C5.29423828 0.58201172 5.29423828 0.58201172 4.57421875 1.17578125 C2.59007113 3.47502924 2.31466837 5.21311811 1.8125 8.1875 C1.65394531 9.08855469 1.49539063 9.98960937 1.33203125 10.91796875 C1.16767578 11.94857422 1.16767578 11.94857422 1 13 C0.67 13 0.34 13 0 13 C0 8.71 0 4.42 0 0 Z " fill="#832068" transform="translate(384,253)"/>
<path d="M0 0 C0.66 0 1.32 0 2 0 C1.82374165 2.37948772 1.30280227 3.70225849 -0.40234375 5.37890625 C-1.90649092 6.62115486 -3.45129851 7.81376056 -5 9 C-5.66 8.67 -6.32 8.34 -7 8 C-5.88200014 6.66079162 -4.75538103 5.32877444 -3.625 4 C-2.68527344 2.88625 -2.68527344 2.88625 -1.7265625 1.75 C-1.15679687 1.1725 -0.58703125 0.595 0 0 Z " fill="#93295F" transform="translate(380,171)"/>
<path d="M0 0 C1.4606285 2.64738916 2 3.89448334 2 7 C-1.96 6.67 -5.92 6.34 -10 6 C-10 5.67 -10 5.34 -10 5 C-6.7 5 -3.4 5 0 5 C0 3.35 0 1.7 0 0 Z " fill="#4B2389" transform="translate(507,425)"/>
<path d="M0 0 C2.97 0 5.94 0 9 0 C9 0.33 9 0.66 9 1 C6.69 1 4.38 1 2 1 C2 2.65 2 4.3 2 6 C1.01 6 0.02 6 -1 6 C-0.67 4.02 -0.34 2.04 0 0 Z " fill="#D12439" transform="translate(111,336)"/>
<path d="M0 0 C0.66 0.66 1.32 1.32 2 2 C1.34 2 0.68 2 0 2 C0 5.63 0 9.26 0 13 C-0.33 13 -0.66 13 -1 13 C-1 11.35 -1 9.7 -1 8 C-1.66 8 -2.32 8 -3 8 C-2.37240135 5.07120629 -1.41377341 2.63904371 0 0 Z " fill="#621C42" transform="translate(293,322)"/>
<path d="M0 0 C0 3.77910478 -0.99703962 4.46106101 -3.5 7.1875 C-4.1496875 7.90292969 -4.799375 8.61835938 -5.46875 9.35546875 C-5.9740625 9.89816406 -6.479375 10.44085938 -7 11 C-7.66 10.67 -8.32 10.34 -9 10 C-6.03 6.7 -3.06 3.4 0 0 Z " fill="#90275A" transform="translate(367,187)"/>
<path d="M0 0 C0.99 0.33 1.98 0.66 3 1 C3.6875 3.0625 3.6875 3.0625 4 5 C3.01 5 2.02 5 1 5 C0.67 5.66 0.34 6.32 0 7 C-0.66 7 -1.32 7 -2 7 C-1.34 4.69 -0.68 2.38 0 0 Z " fill="#3E1E48" transform="translate(462,313)"/>
<path d="M0 0 C1.65 0 3.3 0 5 0 C5 1.32 5 2.64 5 4 C3.35 4 1.7 4 0 4 C0 2.68 0 1.36 0 0 Z " fill="#49111A" transform="translate(219,236)"/>
<path d="M0 0 C2.95183101 2.95183101 3.08663988 5.95511947 4 10 C1.25545805 8.62772902 0.26717054 6.80151161 -0.6875 3.9375 C-1 2 -1 2 0 0 Z " fill="#671E24" transform="translate(158,224)"/>
<path d="M0 0 C0 0.99 0 1.98 0 3 C-2.5 5.1875 -2.5 5.1875 -5 7 C-4.75 4.625 -4.75 4.625 -4 2 C-1.9375 0.6875 -1.9375 0.6875 0 0 Z " fill="#3B1E2E" transform="translate(307,309)"/>
<path d="M0 0 C1.32 0 2.64 0 4 0 C3.67 1.32 3.34 2.64 3 4 C1.68 4 0.36 4 -1 4 C-0.67 2.68 -0.34 1.36 0 0 Z " fill="#6F175B" transform="translate(373,286)"/>
<path d="M0 0 C-1.0625 1.5625 -1.0625 1.5625 -3 3 C-6.6875 2.6875 -6.6875 2.6875 -10 2 C-10 1.67 -10 1.34 -10 1 C-6.59437148 0.22157062 -3.49234244 -0.09978121 0 0 Z " fill="#61247C" transform="translate(557,226)"/>
</svg>
